{
  "accessors": [
    {
      "bufferView": 2,
      "componentType": 5126,
      "count": 1399,
      "max": [
        14.738743782043457,
        12.927111625671387,
        37.263942718505859
      ],
      "min": [
        -10.012535095214844,
        -8.9627513885498047,
        -0.37240201234817505
      ],
      "type": "VEC3"
    },
    {
      "bufferView": 2,
      "byteOffset": 16788,
      "componentType": 5126,
      "count": 1399,
      "max": [
        0.99933630228042603,
        0.99971723556518555,
        0.99555712938308716
      ],
      "min": [
        -0.99997663497924805,
        -0.99900949001312256,
        -1
      ],
      "type": "VEC3"
    },
    {
      "bufferView": 3,
      "componentType": 5126,
      "count": 1399,
      "max": [
        0.9991602897644043,
        0.99853146076202393,
        0.9993707537651062,
        1
      ],
      "min": [
        -0.9991602897644043,
        -0.99913161993026733,
        -0.99636238813400269,
        -1
      ],
      "type": "VEC4"
    },
    {
      "bufferView": 3,
      "byteOffset": 22384,
      "componentType": 5126,
      "count": 1399,
      "max": [
        1,
        1,
        1,
        1
      ],
      "min": [
        1,
        1,
        1,
        1
      ],
      "type": "VEC4"
    },
    {
      "bufferView": 1,
      "componentType": 5126,
      "count": 1399,
      "max": [
        2.2411081790924072,
        3.6989643573760986
      ],
      "min": [
        -1.491417407989502,
        -0.89688003063201904
      ],
      "type": "VEC2"
    },
    {
      "bufferView": 0,
      "componentType": 5125,
      "count": 4995,
      "max": [
        1398
      ],
      "min": [
        0
      ],
      "type": "SCALAR"
    },
    {
      "bufferView": 2,
      "byteOffset": 33576,
      "componentType": 5126,
      "count": 3435,
      "max": [
        24.74614143371582,
        23.234584808349609,
        43.270320892333984
      ],
      "min": [
        -12.575151443481445,
        -19.674205780029297,
        13.990601539611816
      ],
      "type": "VEC3"
    },
    {
      "bufferView": 2,
      "byteOffset": 74796,
      "componentType": 5126,
      "count": 3435,
      "max": [
        0.97930490970611572,
        0.95585578680038452,
        0.99998712539672852
      ],
      "min": [
        -0.74202698469161987,
        -0.86584919691085815,
        0.18970599770545959
      ],
      "type": "VEC3"
    },
    {
      "bufferView": 3,
      "byteOffset": 44768,
      "componentType": 5126,
      "count": 3435,
      "max": [
        0.99978339672088623,
        0.99936908483505249,
        0.91355514526367188,
        1
      ],
      "min": [
        -0.99950021505355835,
        -0.9999319314956665,
        -0.85546028614044189,
        1
      ],
      "type": "VEC4"
    },
    {
      "bufferView": 3,
      "byteOffset": 99728,
      "componentType": 5126,
      "count": 3435,
      "max": [
        1,
        1,
        1,
        1
      ],
      "min": [
        1,
        1,
        1,
        1
      ],
      "type": "VEC4"
    },
    {
      "bufferView": 1,
      "byteOffset": 11192,
      "componentType": 5126,
      "count": 3435,
      "max": [
        0.99950003623962402,
        0.99950003623962402
      ],
      "min": [
        0.00050000002374872565,
        0.00050000002374872565
      ],
      "type": "VEC2"
    },
    {
      "bufferView": 0,
      "byteOffset": 19980,
      "componentType": 5125,
      "count": 8244,
      "max": [
        3434
      ],
      "min": [
        0
      ],
      "type": "SCALAR"
    },
    {
      "bufferView": 2,
      "byteOffset": 116016,
      "componentType": 5126,
      "count": 46,
      "max": [
        3.3050529956817627,
        3.2776107788085938,
        17.649032592773438
      ],
      "min": [
        -0.68345558643341064,
        -2.0805292129516602,
        14.892088890075684
      ],
      "type": "VEC3"
    },
    {
      "bufferView": 2,
      "byteOffset": 116568,
      "componentType": 5126,
      "count": 46,
      "max": [
        0.79786080121994019,
        0.97743242979049683,
        0.85076427459716797
      ],
      "min": [
        -0.4082266092300415,
        -0.99722498655319214,
        -0.51206082105636597
      ],
      "type": "VEC3"
    },
    {
      "bufferView": 3,
      "byteOffset": 154688,
      "componentType": 5126,
      "count": 46,
      "max": [
        -0.60253012180328369,
        0.7378043532371521,
        0.27414202690124512,
        1
      ],
      "min": [
        -0.99766212701797485,
        -0.21715590357780457,
        -0.34101191163063049,
        1
      ],
      "type": "VEC4"
    },
    {
      "bufferView": 3,
      "byteOffset": 155424,
      "componentType": 5126,
      "count": 46,
      "max": [
        1,
        1,
        1,
        1
      ],
      "min": [
        1,
        1,
        1,
        1
      ],
      "type": "VEC4"
    },
    {
      "bufferView": 1,
      "byteOffset": 38672,
      "componentType": 5126,
      "count": 46,
      "max": [
        1.018763542175293,
        1.0433280467987061
      ],
      "min": [
        -0.018763542175292969,
        -0.043327987194061279
      ],
      "type": "VEC2"
    },
    {
      "bufferView": 0,
      "byteOffset": 52956,
      "componentType": 5125,
      "count": 198,
      "max": [
        45
      ],
      "min": [
        0
      ],
      "type": "SCALAR"
    },
    {
      "bufferView": 2,
      "byteOffset": 117120,
      "componentType": 5126,
      "count": 11,
      "max": [
        6.7655625343322754,
        1.539244532585144,
        29.141557693481445
      ],
      "min": [
        5.800501823425293,
        0.66292685270309448,
        28.370880126953125
      ],
      "type": "VEC3"
    },
    {
      "bufferView": 2,
      "byteOffset": 117252,
      "componentType": 5126,
      "count": 11,
      "max": [
        0.88189852237701416,
        0.36958882212638855,
        0.95761680603027344
      ],
      "min": [
        -0.49554327130317688,
        -0.87478190660476685,
        0.41114509105682373
      ],
      "type": "VEC3"
    },
    {
      "bufferView": 3,
      "byteOffset": 156160,
      "componentType": 5126,
      "count": 11,
      "max": [
        0.76814866065979004,
        0.7647087574005127,
        0.66850411891937256,
        1
      ],
      "min": [
        0.32664787769317627,
        0.25495213270187378,
        -0.6032177209854126,
        1
      ],
      "type": "VEC4"
    },
    {
      "bufferView": 3,
      "byteOffset": 156336,
      "componentType": 5126,
      "count": 11,
      "max": [
        1,
        1,
        1,
        1
      ],
      "min": [
        1,
        1,
        1,
        1
      ],
      "type": "VEC4"
    },
    {
      "bufferView": 1,
      "byteOffset": 39040,
      "componentType": 5126,
      "count": 11,
      "max": [
        1,
        0.97552824020385742
      ],
      "min": [
        0,
        0.024471759796142578
      ],
      "type": "VEC2"
    },
    {
      "bufferView": 0,
      "byteOffset": 53748,
      "componentType": 5125,
      "count": 30,
      "max": [
        10
      ],
      "min": [
        0
      ],
      "type": "SCALAR"
    }
  ],
  "asset": {
    "extras": {
      "author": "BaptisteBerard (https://sketchfab.com/BaptisteBerard)",
      "license": "CC-BY-4.0 (http://creativecommons.org/licenses/by/4.0/)",
      "source": "https://sketchfab.com/models/ea5e6ed7f9d6445ba69589d503e8cebf",
      "title": "Tree"
    },
    "generator": "Sketchfab-3.19.2",
    "version": "2.0"
  },
  "bufferViews": [
    {
      "buffer": 0,
      "byteLength": 53868,
      "byteOffset": 0,
      "name": "floatBufferViews",
      "target": 34963
    },
    {
      "buffer": 0,
      "byteLength": 39128,
      "byteOffset": 53868,
      "byteStride": 8,
      "name": "floatBufferViews",
      "target": 34962
    },
    {
      "buffer": 0,
      "byteLength": 117384,
      "byteOffset": 92996,
      "byteStride": 12,
      "name": "floatBufferViews",
      "target": 34962
    },
    {
      "buffer": 0,
      "byteLength": 156512,
      "byteOffset": 210380,
      "byteStride": 16,
      "name": "floatBufferViews",
      "target": 34962
    }
  ],
  "buffers": [
    {
      "byteLength": 366892,
      "uri": "scene.bin"
    }
  ],
  "images": [
    {
      "uri": "textures/Default_Material_normal.png"
    },
    {
      "uri": "textures/material_normal.png"
    },
    {
      "uri": "textures/material_baseColor.png"
    },
    {
      "uri": "textures/leaves_baseColor.png"
    },
    {
      "uri": "textures/leaves_normal.png"
    },
    {
      "uri": "textures/bark_normal.png"
    },
    {
      "uri": "textures/bark_baseColor.png"
    }
  ],
  "materials": [
    {
      "doubleSided": true,
      "emissiveFactor": [
        0,
        0,
        0
      ],
      "name": "bark",
      "normalTexture": {
        "index": 5,
        "scale": 1,
        "texCoord": 0
      },
      "pbrMetallicRoughness": {
        "baseColorFactor": [
          1,
          1,
          1,
          1
        ],
        "baseColorTexture": {
          "index": 6,
          "texCoord": 0
        },
        "metallicFactor": 0,
        "roughnessFactor": 0.59999999999999998
      }
    },
    {
      "alphaCutoff": 0.27610518290000002,
      "alphaMode": "MASK",
      "doubleSided": true,
      "emissiveFactor": [
        0,
        0,
        0
      ],
      "name": "leaves",
      "normalTexture": {
        "index": 4,
        "scale": 1,
        "texCoord": 0
      },
      "pbrMetallicRoughness": {
        "baseColorFactor": [
          1,
          1,
          1,
          1
        ],
        "baseColorTexture": {
          "index": 3,
          "texCoord": 0
        },
        "metallicFactor": 0,
        "roughnessFactor": 0.95560213410000006
      }
    },
    {
      "doubleSided": true,
      "emissiveFactor": [
        0,
        0,
        0
      ],
      "name": "material",
      "normalTexture": {
        "index": 1,
        "scale": 1,
        "texCoord": 0
      },
      "pbrMetallicRoughness": {
        "baseColorFactor": [
          1,
          1,
          1,
          1
        ],
        "baseColorTexture": {
          "index": 2,
          "texCoord": 0
        },
        "metallicFactor": 0,
        "roughnessFactor": 0.59999999999999998
      }
    },
    {
      "alphaCutoff": 0,
      "alphaMode": "MASK",
      "doubleSided": true,
      "emissiveFactor": [
        0,
        0,
        0
      ],
      "name": "Default_Material",
      "normalTexture": {
        "index": 0,
        "scale": 1,
        "texCoord": 0
      },
      "pbrMetallicRoughness": {
        "baseColorFactor": [
          0.5,
          0.5,
          0.5,
          1
        ],
        "metallicFactor": 0,
        "roughnessFactor": 0.27877286590000006
      }
    }
  ],
  "meshes": [
    {
      "name": "yggrassil_02_bark_0",
      "primitives": [
        {
          "attributes": {
            "COLOR_0": 3,
            "NORMAL": 1,
            "POSITION": 0,
            "TANGENT": 2,
            "TEXCOORD_0": 4
          },
          "indices": 5,
          "material": 0,
          "mode": 4
        }
      ]
    },
    {
      "name": "yggrassil_02_leaves_0",
      "primitives": [
        {
          "attributes": {
            "COLOR_0": 9,
            "NORMAL": 7,
            "POSITION": 6,
            "TANGENT": 8,
            "TEXCOORD_0": 10
          },
          "indices": 11,
          "material": 1,
          "mode": 4
        }
      ]
    },
    {
      "name": "yggrassil_02_cap_0",
      "primitives": [
        {
          "attributes": {
            "COLOR_0": 15,
            "NORMAL": 13,
            "POSITION": 12,
            "TANGENT": 14,
            "TEXCOORD_0": 16
          },
          "indices": 17,
          "material": 2,
          "mode": 4
        }
      ]
    },
    {
      "name": "yggrassil_02_Default_Material_0",
      "primitives": [
        {
          "attributes": {
            "COLOR_0": 21,
            "NORMAL": 19,
            "POSITION": 18,
            "TANGENT": 20,
            "TEXCOORD_0": 22
          },
          "indices": 23,
          "material": 3,
          "mode": 4
        }
      ]
    }
  ],
  "nodes": [
    {
      "children": [
        1
      ],
      "name": "RootNode (gltf orientation matrix)",
      "rotation": [
        -0.70710678118654746,
        -0,
        -0,
        0.70710678118654757
      ]
    },
    {
      "children": [
        2
      ],
      "name": "RootNode (model correction matrix)"
    },
    {
      "children": [
        3
      ],
      "matrix": [
        1,
        0,
        0,
        0,
        0,
        0,
        1,
        0,
        0,
        -1,
        0,
        0,
        0,
        0,
        0,
        1
      ],
      "name": "yggrassil_02.fbx"
    },
    {
      "children": [
        4
      ],
      "name": "RootNode"
    },
    {
      "children": [
        5,
        6,
        7,
        8
      ],
      "matrix": [
        26.845731735229492,
        0,
        0,
        0,
        0,
        5.9609498970724078e-15,
        -26.845731735229492,
        0,
        0,
        26.845731735229492,
        5.9609498970724078e-15,
        0,
        0,
        0,
        0,
        1
      ],
      "name": "yggrassil_02"
    },
    {
      "mesh": 0,
      "name": "yggrassil_02_bark_0"
    },
    {
      "mesh": 1,
      "name": "yggrassil_02_leaves_0"
    },
    {
      "mesh": 2,
      "name": "yggrassil_02_cap_0"
    },
    {
      "mesh": 3,
      "name": "yggrassil_02_Default_Material_0"
    }
  ],
  "samplers": [
    {
      "magFilter": 9729,
      "minFilter": 9987,
      "wrapS": 10497,
      "wrapT": 10497
    }
  ],
  "scene": 0,
  "scenes": [
    {
      "name": "OSG_Scene",
      "nodes": [
        0
      ]
    }
  ],
  "textures": [
    {
      "sampler": 0,
      "source": 0
    },
    {
      "sampler": 0,
      "source": 1
    },
    {
      "sampler": 0,
      "source": 2
    },
    {
      "sampler": 0,
      "source": 3
    },
    {
      "sampler": 0,
      "source": 4
    },
    {
      "sampler": 0,
      "source": 5
    },
    {
      "sampler": 0,
      "source": 6
    }
  ]
}

